PathFileType	4	(X/Y/Z)	5_coords_data.trc
DataRate	CameraRate	NumFrames	NumMarkers	Units	OrigDataRate	OrigDataStartFrame	OrigNumFrames
30.0	30.0	7	21	m	30.0	48	57
Frame#	Time	THUMB_TIP	THUMB_IP	THUMB_MCP	THUMB_CMC	INDEX_TIP	INDEX_DIP	INDEX_PIP	INDEX_MCP	MIDDLE_TIP	MIDDLE_DIP	MIDDLE_PIP	MIDDLE_MCP	RING_TIP	RING_DIP	RING_PIP	RING_MCP	PINKY_TIP	PINKY_DIP	PINKY_PIP	PINKY_MCP	WRIST
X1	Y1	Z1	X2	Y2	Z2	X3	Y3	Z3	X4	Y4	Z4	X5	Y5	Z5	X6	Y6	Z6	X7	Y7	Z7	X8	Y8	Z8	X9	Y9	Z9	X10	Y10	Z10	X11	Y11	Z11	X12	Y12	Z12	X13	Y13	Z13	X14	Y14	Z14	X15	Y15	Z15	X16	Y16	Z16	X17	Y17	Z17	X18	Y18	Z18	X19	Y19	Z19	X20	Y20	Z20	X21	Y21	Z21
47	1.5666666666666667	-0.019072999954223634	-0.1399149932861328	1.0188599853515625	-0.02337470054626465	-0.11711499786376953	1.0302900390625	-0.03666299819946289	-0.10316100311279297	1.0534000244140624	-0.040461299896240234	-0.07122940063476563	1.061699951171875	-0.013942299842834472	-0.11191400146484375	0.936093017578125	-0.02606209945678711	-0.10864099884033203	0.9550269775390625	-0.03815420150756836	-0.10482099914550781	0.9747839965820313	-0.04959560012817383	-0.09536599731445312	1.00927001953125	-0.012444600105285645	-0.08654630279541016	0.9181640014648438	-0.02419490051269531	-0.08548239898681641	0.9393049926757813	-0.03915959930419922	-0.0827886962890625	0.9647119750976563	-0.0520364990234375	-0.07579100036621093	1.0011199951171874	-0.010449799537658691	-0.06241740036010742	0.9227260131835937	-0.02310499954223633	-0.06043320083618164	0.942531005859375	-0.0381708984375	-0.05879980087280273	0.96539697265625	-0.0503140983581543	-0.05682849884033203	1.000989990234375	-0.021091699600219727	-0.036088401794433594	0.9399140014648437	-0.02962409973144531	-0.03658459854125977	0.9588759765625	-0.03703219985961914	-0.03767060089111328	0.9760780029296875	-0.044535900115966795	-0.03906000137329101	1.0023800048828124	-0.060194099426269534	-0.0412510986328125	1.072219970703125
48	1.6	-0.022462400436401367	-0.13580099487304687	1.0123699951171874	-0.02577519989013672	-0.11436399841308593	1.02627001953125	-0.0374207992553711	-0.10211000061035157	1.05172998046875	-0.04012319946289063	-0.07091000366210938	1.06127001953125	-0.013191699981689453	-0.10993900299072265	0.9354979858398438	-0.024786800384521485	-0.10710900115966797	0.954823974609375	-0.03670159912109375	-0.10366100311279297	0.9748350219726563	-0.04918960189819336	-0.09486689758300781	1.009	-0.012726200103759766	-0.08540950012207031	0.9174769897460937	-0.023689800262451172	-0.08463880157470703	0.9391740112304687	-0.03812689971923828	-0.08221080017089843	0.964885009765625	-0.05165499877929688	-0.07534549713134765	1.0010999755859376	-0.013760000228881837	-0.06145080184936524	0.9206840209960937	-0.024777700424194336	-0.059583900451660156	0.9415880126953124	-0.03845830154418945	-0.0581974983215332	0.9652459716796875	-0.050263500213623045	-0.0564193000793457	1.0012100219726563	-0.023931299209594727	-0.03591790008544922	0.9387349853515625	-0.031203699111938477	-0.03639030075073242	0.9582650146484375	-0.03767940139770508	-0.037450698852539065	0.9758809814453125	-0.04454219818115234	-0.03867060089111328	1.0023800048828124	-0.06009320068359375	-0.04110250091552734	1.071969970703125
49	1.6333333333333333	-0.024538700103759765	-0.1316540069580078	1.0071799926757812	-0.027434000015258787	-0.11184700012207031	1.0235700073242187	-0.03788529968261719	-0.10113400268554687	1.05022998046875	-0.040165699005126954	-0.07033910369873046	1.0607099609375	-0.012484000205993653	-0.10842299652099609	0.9350150146484375	-0.02391360092163086	-0.10574500274658204	0.9543939819335937	-0.035930000305175784	-0.10251899719238282	0.9744110107421875	-0.0493140983581543	-0.09398500061035156	1.008510009765625	-0.013274700164794921	-0.08365129852294922	0.9166530151367187	-0.023624799728393556	-0.08318270111083985	0.9386300048828125	-0.03770429992675781	-0.08105960083007813	0.9645549926757813	-0.05155810165405274	-0.07441719818115235	1.0006199951171875	-0.015615500450134278	-0.05980139923095703	0.9192540283203126	-0.02584749984741211	-0.05815570068359375	0.940719970703125	-0.03872359848022461	-0.05696160125732422	0.9648510131835938	-0.0501343002319336	-0.05551499938964844	1.0006900024414063	-0.02531060028076172	-0.03490439987182617	0.938135986328125	-0.03202330017089844	-0.03544129943847656	0.9579949951171876	-0.038081901550292965	-0.036581298828125	0.9757550048828125	-0.04461180114746094	-0.037877300262451175	1.0023099975585938	-0.060180599212646485	-0.04069390106201172	1.07168994140625
50	1.6666666666666667	-0.025346799850463866	-0.1283260040283203	1.0040800170898438	-0.028568000793457032	-0.10998400115966797	1.0221400146484374	-0.03829180145263672	-0.10009600067138671	1.049469970703125	-0.04017929840087891	-0.06971219635009765	1.060280029296875	-0.01215779972076416	-0.10700700378417968	0.9346179809570313	-0.023694299697875978	-0.10445600128173828	0.95402099609375	-0.03572790145874023	-0.10123799896240235	0.9740430297851562	-0.049404098510742185	-0.09283940124511719	1.0081099853515625	-0.013347999572753906	-0.08188510131835937	0.916031982421875	-0.023565500259399415	-0.08157389831542969	0.9381259765625	-0.0375427017211914	-0.07963909912109375	0.9641859741210937	-0.05153300094604492	-0.07321240234375	1.0003900146484375	-0.015602499961853027	-0.05837810134887695	0.918843994140625	-0.02575539970397949	-0.056829200744628904	0.9404609985351563	-0.038630500793457034	-0.055758800506591794	0.9645859985351563	-0.050174598693847654	-0.05438460159301758	1.000530029296875	-0.025101600646972658	-0.033599601745605466	0.9379760131835938	-0.03182589912414551	-0.03424069976806641	0.9577999877929687	-0.03789450073242188	-0.03546200180053711	0.97556298828125	-0.04438999938964844	-0.03680289840698242	1.0018699951171874	-0.06021189880371094	-0.039939701080322264	1.071489990234375
51	1.7	-0.02422599983215332	-0.12613600158691407	1.0029400024414064	-0.028327999114990236	-0.10866200256347656	1.021760009765625	-0.03822769927978516	-0.09906629943847656	1.04931005859375	-0.0400900993347168	-0.06871610260009765	1.0600899658203125	-0.011544899940490723	-0.1057239990234375	0.9343820190429688	-0.02317449951171875	-0.10322899627685547	0.95364599609375	-0.035347999572753905	-0.10004900360107422	0.9736190185546875	-0.049185001373291015	-0.09169120025634765	1.0078900146484375	-0.013214900016784667	-0.0802136001586914	0.9156279907226562	-0.023412599563598632	-0.08003820037841797	0.9376790161132813	-0.037366401672363284	-0.07824299621582032	0.9637139892578125	-0.05129050064086914	-0.07207330322265625	1.000030029296875	-0.01606139945983887	-0.057050201416015626	0.9183330078125	-0.025991600036621095	-0.0555349006652832	0.939948974609375	-0.03868339920043945	-0.05442829895019531	0.9642020263671875	-0.04990079879760742	-0.05314469909667969	1.000260009765625	-0.025079599380493166	-0.031489900588989254	0.93789599609375	-0.03179220008850098	-0.032436500549316405	0.9575560302734375	-0.03782529830932617	-0.0338671989440918	0.97531298828125	-0.04423809814453125	-0.0356510009765625	1.0016199951171876	-0.06022610092163086	-0.038962501525878906	1.0713699951171876
52	1.7333333333333334	-0.022730699539184572	-0.12480400085449218	1.0028300170898437	-0.02738570022583008	-0.10766899871826172	1.0221099853515625	-0.037666500091552736	-0.0981865997314453	1.0494300537109376	-0.03979990005493164	-0.06778600311279297	1.0601400146484374	-0.01071560001373291	-0.10471900177001953	0.9343300170898438	-0.022521699905395508	-0.1022300033569336	0.95352001953125	-0.03482720184326172	-0.09905570220947266	0.9734210205078125	-0.04833110046386719	-0.09074140167236328	1.007489990234375	-0.012874199867248535	-0.07870269775390625	0.9152930297851563	-0.023107200622558593	-0.07869519805908202	0.9373809814453125	-0.037005100250244144	-0.07706790161132812	0.9634539794921875	-0.05062200164794922	-0.07111049652099609	0.9996539916992188	-0.01658690071105957	-0.05573469924926758	0.9177760009765625	-0.026344600677490233	-0.054316699981689455	0.9394660034179687	-0.03876620101928711	-0.05327159881591797	0.9639420166015625	-0.049604698181152346	-0.0522494010925293	1.000010009765625	-0.025309499740600587	-0.028893600463867186	0.9377000122070313	-0.03205780029296875	-0.03028450012207031	0.9572949829101562	-0.03806039810180664	-0.032166400909423826	0.9750689697265625	-0.04407659912109375	-0.03470019912719727	1.0014199829101562	-0.05998440170288086	-0.03814619827270508	1.0713900146484374
53	1.7666666666666666	-0.021659500122070314	-0.12413200378417968	1.00302001953125	-0.026679800033569335	-0.10731099700927735	1.02227001953125	-0.03704880142211914	-0.09780750274658204	1.0494100341796875	-0.039411701202392575	-0.06721209716796875	1.0602099609375	-0.010625200271606445	-0.10399199676513672	0.9340419921875	-0.022423900604248048	-0.10155699920654297	0.953218994140625	-0.03472420120239258	-0.09837329864501954	0.9731190185546875	-0.04779990005493164	-0.09005439758300782	1.00725	-0.012223999977111816	-0.0776312026977539	0.915177001953125	-0.022619699478149412	-0.07770249938964843	0.9371820068359376	-0.036697498321533205	-0.07616750335693359	0.9632860107421874	-0.05022650146484375	-0.07037989807128907	0.9996229858398438	-0.016128799438476563	-0.05477610015869141	0.9176649780273437	-0.025973100662231446	-0.053374500274658204	0.9393090209960937	-0.03847880172729492	-0.05241289901733399	0.9637999877929687	-0.04904940032958984	-0.05147869873046875	0.9999180297851562	-0.024581499099731445	-0.02726639938354492	0.9378250122070313	-0.03144230079650879	-0.02890290069580078	0.9572589721679687	-0.037517101287841796	-0.031002899169921876	0.9749429931640625	-0.04352730178833008	-0.03390750122070312	1.0014000244140624	-0.05951300048828125	-0.037484298706054686	1.0714300537109376
